<mxfile host="Electron" modified="2024-12-18T17:07:57.679Z" agent="Mozilla/5.0 (Windows NT 10.0; Win64; x64) AppleWebKit/537.36 (KHTML, like Gecko) draw.io/21.6.5 Chrome/114.0.5735.243 Electron/25.3.1 Safari/537.36" etag="dTdSfUN2f9zKtuq0Jutx" version="21.6.5" type="device">
  <diagram name="第 1 页" id="KdIUAr9V7i1fHdUvxCZw">
    <mxGraphModel dx="1036" dy="654" grid="1" gridSize="10" guides="1" tooltips="1" connect="1" arrows="1" fold="1" page="1" pageScale="1" pageWidth="827" pageHeight="1169" math="0" shadow="0">
      <root>
        <mxCell id="0" />
        <mxCell id="1" parent="0" />
        <mxCell id="HsbgpAUpWKfKDhWexNhd-12" value="&lt;span style=&quot;font-size: 19px;&quot;&gt;数据流分析&lt;br&gt;&lt;br&gt;&lt;br&gt;&lt;br&gt;&lt;/span&gt;" style="rounded=0;whiteSpace=wrap;html=1;fillColor=#cce5ff;strokeColor=#36393d;opacity=60;" parent="1" vertex="1">
          <mxGeometry x="440" y="360" width="300" height="120" as="geometry" />
        </mxCell>
        <mxCell id="HsbgpAUpWKfKDhWexNhd-6" style="edgeStyle=orthogonalEdgeStyle;rounded=0;orthogonalLoop=1;jettySize=auto;html=1;" parent="1" source="HsbgpAUpWKfKDhWexNhd-1" target="HsbgpAUpWKfKDhWexNhd-2" edge="1">
          <mxGeometry relative="1" as="geometry" />
        </mxCell>
        <mxCell id="HsbgpAUpWKfKDhWexNhd-1" value="&lt;font style=&quot;font-size: 19px;&quot;&gt;词法分析&lt;/font&gt;" style="rounded=0;whiteSpace=wrap;html=1;fillColor=#ffff88;strokeColor=#36393d;" parent="1" vertex="1">
          <mxGeometry x="260" y="210" width="120" height="60" as="geometry" />
        </mxCell>
        <mxCell id="HsbgpAUpWKfKDhWexNhd-7" style="edgeStyle=orthogonalEdgeStyle;rounded=0;orthogonalLoop=1;jettySize=auto;html=1;" parent="1" source="HsbgpAUpWKfKDhWexNhd-2" target="HsbgpAUpWKfKDhWexNhd-3" edge="1">
          <mxGeometry relative="1" as="geometry" />
        </mxCell>
        <mxCell id="HsbgpAUpWKfKDhWexNhd-2" value="&lt;font style=&quot;font-size: 19px;&quot;&gt;语法分析&lt;/font&gt;" style="rounded=0;whiteSpace=wrap;html=1;fillColor=#ffff88;strokeColor=#36393d;" parent="1" vertex="1">
          <mxGeometry x="260" y="290" width="120" height="60" as="geometry" />
        </mxCell>
        <mxCell id="HsbgpAUpWKfKDhWexNhd-8" style="edgeStyle=orthogonalEdgeStyle;rounded=0;orthogonalLoop=1;jettySize=auto;html=1;entryX=0.5;entryY=0;entryDx=0;entryDy=0;" parent="1" source="HsbgpAUpWKfKDhWexNhd-3" target="HsbgpAUpWKfKDhWexNhd-4" edge="1">
          <mxGeometry relative="1" as="geometry" />
        </mxCell>
        <mxCell id="HsbgpAUpWKfKDhWexNhd-3" value="&lt;font style=&quot;font-size: 19px;&quot;&gt;语义分析&lt;/font&gt;" style="rounded=0;whiteSpace=wrap;html=1;fillColor=#ffff88;strokeColor=#36393d;" parent="1" vertex="1">
          <mxGeometry x="260" y="370" width="120" height="60" as="geometry" />
        </mxCell>
        <mxCell id="HsbgpAUpWKfKDhWexNhd-9" style="edgeStyle=orthogonalEdgeStyle;rounded=0;orthogonalLoop=1;jettySize=auto;html=1;entryX=0.5;entryY=0;entryDx=0;entryDy=0;fillColor=#cce5ff;strokeColor=#36393d;" parent="1" source="HsbgpAUpWKfKDhWexNhd-4" target="HsbgpAUpWKfKDhWexNhd-5" edge="1">
          <mxGeometry relative="1" as="geometry" />
        </mxCell>
        <mxCell id="HsbgpAUpWKfKDhWexNhd-17" style="edgeStyle=orthogonalEdgeStyle;rounded=0;orthogonalLoop=1;jettySize=auto;html=1;" parent="1" source="HsbgpAUpWKfKDhWexNhd-4" target="HsbgpAUpWKfKDhWexNhd-12" edge="1">
          <mxGeometry relative="1" as="geometry">
            <Array as="points">
              <mxPoint x="410" y="490" />
              <mxPoint x="410" y="300" />
              <mxPoint x="590" y="300" />
            </Array>
          </mxGeometry>
        </mxCell>
        <mxCell id="HsbgpAUpWKfKDhWexNhd-4" value="&lt;span style=&quot;font-size: 19px;&quot;&gt;中间代码生成&lt;/span&gt;" style="rounded=0;whiteSpace=wrap;html=1;fillColor=#ffff88;strokeColor=#36393d;" parent="1" vertex="1">
          <mxGeometry x="260" y="460" width="120" height="60" as="geometry" />
        </mxCell>
        <mxCell id="HsbgpAUpWKfKDhWexNhd-5" value="&lt;span style=&quot;font-size: 19px;&quot;&gt;目标代码生成&lt;/span&gt;" style="rounded=0;whiteSpace=wrap;html=1;fillColor=#ffff88;strokeColor=#36393d;" parent="1" vertex="1">
          <mxGeometry x="260" y="630" width="120" height="60" as="geometry" />
        </mxCell>
        <mxCell id="HsbgpAUpWKfKDhWexNhd-18" style="edgeStyle=orthogonalEdgeStyle;rounded=0;orthogonalLoop=1;jettySize=auto;html=1;entryX=0.5;entryY=0;entryDx=0;entryDy=0;" parent="1" source="HsbgpAUpWKfKDhWexNhd-10" target="HsbgpAUpWKfKDhWexNhd-15" edge="1">
          <mxGeometry relative="1" as="geometry" />
        </mxCell>
        <mxCell id="HsbgpAUpWKfKDhWexNhd-19" style="edgeStyle=orthogonalEdgeStyle;rounded=0;orthogonalLoop=1;jettySize=auto;html=1;exitX=0.5;exitY=1;exitDx=0;exitDy=0;" parent="1" source="HsbgpAUpWKfKDhWexNhd-10" target="HsbgpAUpWKfKDhWexNhd-14" edge="1">
          <mxGeometry relative="1" as="geometry" />
        </mxCell>
        <mxCell id="HsbgpAUpWKfKDhWexNhd-10" value="&lt;span style=&quot;font-size: 19px;&quot;&gt;活跃变量分析&lt;/span&gt;" style="rounded=0;whiteSpace=wrap;html=1;fillColor=#cce5ff;strokeColor=#36393d;" parent="1" vertex="1">
          <mxGeometry x="460" y="410" width="120" height="60" as="geometry" />
        </mxCell>
        <mxCell id="HsbgpAUpWKfKDhWexNhd-20" style="edgeStyle=orthogonalEdgeStyle;rounded=0;orthogonalLoop=1;jettySize=auto;html=1;exitX=0.5;exitY=1;exitDx=0;exitDy=0;" parent="1" source="HsbgpAUpWKfKDhWexNhd-11" target="HsbgpAUpWKfKDhWexNhd-16" edge="1">
          <mxGeometry relative="1" as="geometry" />
        </mxCell>
        <mxCell id="HsbgpAUpWKfKDhWexNhd-11" value="&lt;span style=&quot;font-size: 19px;&quot;&gt;支配关系分析&lt;/span&gt;" style="rounded=0;whiteSpace=wrap;html=1;fillColor=#cce5ff;strokeColor=#36393d;" parent="1" vertex="1">
          <mxGeometry x="610" y="410" width="120" height="60" as="geometry" />
        </mxCell>
        <mxCell id="HsbgpAUpWKfKDhWexNhd-23" style="edgeStyle=orthogonalEdgeStyle;rounded=0;orthogonalLoop=1;jettySize=auto;html=1;entryX=1;entryY=0.5;entryDx=0;entryDy=0;" parent="1" source="HsbgpAUpWKfKDhWexNhd-14" target="HsbgpAUpWKfKDhWexNhd-5" edge="1">
          <mxGeometry relative="1" as="geometry">
            <Array as="points">
              <mxPoint x="586" y="660" />
            </Array>
          </mxGeometry>
        </mxCell>
        <mxCell id="HsbgpAUpWKfKDhWexNhd-14" value="&lt;span style=&quot;font-size: 19px;&quot;&gt;死代码删除&lt;/span&gt;" style="rounded=0;whiteSpace=wrap;html=1;fillColor=#cdeb8b;strokeColor=#36393d;" parent="1" vertex="1">
          <mxGeometry x="526" y="550" width="120" height="60" as="geometry" />
        </mxCell>
        <mxCell id="HsbgpAUpWKfKDhWexNhd-21" style="edgeStyle=orthogonalEdgeStyle;rounded=0;orthogonalLoop=1;jettySize=auto;html=1;entryX=1;entryY=0.5;entryDx=0;entryDy=0;" parent="1" source="HsbgpAUpWKfKDhWexNhd-15" target="HsbgpAUpWKfKDhWexNhd-5" edge="1">
          <mxGeometry relative="1" as="geometry" />
        </mxCell>
        <mxCell id="HsbgpAUpWKfKDhWexNhd-15" value="&lt;span style=&quot;font-size: 19px;&quot;&gt;寄存器分配&lt;/span&gt;" style="rounded=0;whiteSpace=wrap;html=1;fillColor=#ffcc99;strokeColor=#36393d;" parent="1" vertex="1">
          <mxGeometry x="380" y="550" width="120" height="60" as="geometry" />
        </mxCell>
        <mxCell id="HsbgpAUpWKfKDhWexNhd-24" style="edgeStyle=orthogonalEdgeStyle;rounded=0;orthogonalLoop=1;jettySize=auto;html=1;entryX=1;entryY=0.5;entryDx=0;entryDy=0;" parent="1" source="HsbgpAUpWKfKDhWexNhd-16" target="HsbgpAUpWKfKDhWexNhd-5" edge="1">
          <mxGeometry relative="1" as="geometry">
            <Array as="points">
              <mxPoint x="746" y="660" />
            </Array>
          </mxGeometry>
        </mxCell>
        <mxCell id="HsbgpAUpWKfKDhWexNhd-16" value="&lt;span style=&quot;font-size: 19px;&quot;&gt;Mem2Reg&lt;/span&gt;" style="rounded=0;whiteSpace=wrap;html=1;fillColor=#cdeb8b;strokeColor=#36393d;" parent="1" vertex="1">
          <mxGeometry x="686" y="550" width="120" height="60" as="geometry" />
        </mxCell>
        <mxCell id="HsbgpAUpWKfKDhWexNhd-25" value="" style="ellipse;whiteSpace=wrap;html=1;aspect=fixed;fillColor=#ffff88;strokeColor=#36393d;" parent="1" vertex="1">
          <mxGeometry x="850" y="280" width="40" height="40" as="geometry" />
        </mxCell>
        <mxCell id="HsbgpAUpWKfKDhWexNhd-26" value="&lt;font style=&quot;font-size: 17px;&quot;&gt;编译流水线&lt;/font&gt;" style="text;html=1;align=center;verticalAlign=middle;resizable=0;points=[];autosize=1;strokeColor=none;fillColor=none;" parent="1" vertex="1">
          <mxGeometry x="885" y="285" width="110" height="30" as="geometry" />
        </mxCell>
        <mxCell id="HsbgpAUpWKfKDhWexNhd-28" value="" style="ellipse;whiteSpace=wrap;html=1;aspect=fixed;fillColor=#cce5ff;strokeColor=#36393d;" parent="1" vertex="1">
          <mxGeometry x="850" y="330" width="40" height="40" as="geometry" />
        </mxCell>
        <mxCell id="HsbgpAUpWKfKDhWexNhd-29" value="&lt;font style=&quot;font-size: 17px;&quot;&gt;静态分析&lt;/font&gt;" style="text;html=1;align=center;verticalAlign=middle;resizable=0;points=[];autosize=1;strokeColor=none;fillColor=none;" parent="1" vertex="1">
          <mxGeometry x="895" y="335" width="90" height="30" as="geometry" />
        </mxCell>
        <mxCell id="HsbgpAUpWKfKDhWexNhd-34" value="" style="ellipse;whiteSpace=wrap;html=1;aspect=fixed;fillColor=#cdeb8b;strokeColor=#36393d;" parent="1" vertex="1">
          <mxGeometry x="850" y="380" width="40" height="40" as="geometry" />
        </mxCell>
        <mxCell id="HsbgpAUpWKfKDhWexNhd-35" value="&lt;span style=&quot;font-size: 17px;&quot;&gt;中端优化&lt;/span&gt;" style="text;html=1;align=center;verticalAlign=middle;resizable=0;points=[];autosize=1;strokeColor=none;fillColor=none;" parent="1" vertex="1">
          <mxGeometry x="895" y="385" width="90" height="30" as="geometry" />
        </mxCell>
        <mxCell id="HsbgpAUpWKfKDhWexNhd-36" value="" style="ellipse;whiteSpace=wrap;html=1;aspect=fixed;fillColor=#ffcc99;strokeColor=#36393d;" parent="1" vertex="1">
          <mxGeometry x="850" y="430" width="40" height="40" as="geometry" />
        </mxCell>
        <mxCell id="HsbgpAUpWKfKDhWexNhd-37" value="&lt;span style=&quot;font-size: 17px;&quot;&gt;后端优化&lt;/span&gt;" style="text;html=1;align=center;verticalAlign=middle;resizable=0;points=[];autosize=1;strokeColor=none;fillColor=none;" parent="1" vertex="1">
          <mxGeometry x="895" y="435" width="90" height="30" as="geometry" />
        </mxCell>
        <mxCell id="HsbgpAUpWKfKDhWexNhd-38" value="" style="endArrow=classic;html=1;rounded=0;entryX=0.5;entryY=0;entryDx=0;entryDy=0;" parent="1" target="HsbgpAUpWKfKDhWexNhd-1" edge="1">
          <mxGeometry width="50" height="50" relative="1" as="geometry">
            <mxPoint x="320" y="190" as="sourcePoint" />
            <mxPoint x="370" y="110" as="targetPoint" />
          </mxGeometry>
        </mxCell>
      </root>
    </mxGraphModel>
  </diagram>
</mxfile>
